<svg width="585" height="585" viewBox="0 0 585 585" fill="none" xmlns="http://www.w3.org/2000/svg">
<g filter="url(#filter0_d_385_600)">
<g filter="url(#filter1_ii_385_600)">
<rect x="28" width="529" height="529" rx="264.5" fill="#D0E7E7"/>
</g>
<path d="M145.285 339.419V339.917H143.591C143.591 339.917 143.591 339.618 143.591 339.469L145.285 339.419ZM480.926 265.535C480.795 313.051 463.018 358.824 431.045 393.974C399.071 429.123 355.181 451.143 307.89 455.76C260.598 460.377 213.278 447.262 175.11 418.96C136.942 390.659 110.648 349.188 101.329 302.594C92.0105 256.001 100.332 207.607 124.679 166.803C149.025 125.998 187.662 95.692 233.091 81.7649C278.52 67.8377 327.503 71.2824 370.536 91.4306C413.569 111.579 447.583 146.994 465.98 190.804C475.919 214.461 481.002 239.875 480.926 265.535V265.535ZM453.475 265.535C453.495 240.523 447.824 215.834 436.891 193.338C425.957 170.842 410.049 151.129 390.369 135.691C370.689 120.253 347.755 109.496 323.303 104.233C298.85 98.9712 273.521 99.3419 249.233 105.317C224.945 111.293 202.335 122.717 183.116 138.724C163.897 154.731 148.571 174.901 138.301 197.708C128.031 220.514 123.085 245.359 123.837 270.359C124.59 295.36 131.021 319.862 142.644 342.01C145.34 341.338 147.973 340.438 150.516 339.319C154.053 337.675 157.341 335.533 160.729 333.59L161.377 332.992L160.38 332.145C159.982 331.747 160.131 331.498 160.63 331.348C161.128 331.199 160.63 331.348 160.63 331.348C162.473 332.145 164.715 331.747 166.209 333.441L166.508 333.789L169.298 335.433C169.996 335.832 170.643 336.23 170.743 334.736L177.17 337.476C177.61 336.771 178.208 336.179 178.917 335.746C179.627 335.314 180.427 335.053 181.255 334.985C182.815 334.67 184.335 334.186 185.789 333.54V333.54L189.775 330.75C187.65 331.965 185.435 333.015 183.148 333.889C183.062 333.926 182.969 333.945 182.874 333.945C182.78 333.945 182.687 333.926 182.6 333.889L186.935 331.846C190.932 329.953 194.599 327.43 197.796 324.373L204.671 315.555C205.698 313.416 206.451 311.157 206.913 308.829C207.861 303.039 207.861 297.133 206.913 291.342C206.913 290.545 206.913 289.748 206.913 289.001C206.913 288.253 206.913 289.001 206.913 288.702L206.215 290.296L205.966 289.947C205.717 288.353 205.568 286.809 205.269 285.264C204.97 283.72 204.621 282.972 204.322 281.826C203.774 279.883 203.326 277.94 202.678 276.047C202.03 274.154 201.034 271.663 200.137 269.521C199.24 267.379 198.244 265.186 197.347 262.944C196.999 262.048 196.899 261.001 196.6 260.055C196.572 259.513 196.381 258.992 196.052 258.56C193.91 256.418 194.009 253.03 191.568 250.988C190.572 250.19 190.323 248.596 189.675 247.351L189.177 246.404C189.177 246.105 188.679 245.707 188.728 245.408C188.728 243.514 187.682 242.319 186.835 240.874C186.41 239.955 186.108 238.983 185.938 237.984C185.892 237.428 185.792 236.878 185.639 236.34C184.942 234.646 184.045 233.102 183.497 231.358C182.942 229.563 182.51 227.732 182.202 225.878C181.554 222.241 181.205 218.604 180.309 215.067C179.761 212.825 180.06 210.583 179.611 208.391C179.405 207.409 179.321 206.405 179.362 205.402C179.362 204.654 179.81 203.907 179.91 203.16C180.517 199.992 180.801 196.77 180.757 193.544C180.431 190.27 180.857 186.964 182.003 183.879C182.23 182.951 182.331 181.995 182.301 181.04C182.301 180.741 182.301 180.342 182.301 180.242C183.696 179.296 183.696 177.751 183.995 176.356C184.743 172.769 185.341 169.182 186.088 165.595C186.396 164.597 186.831 163.642 187.383 162.755C187.852 161.961 188.367 161.196 188.928 160.464L192.664 155.482C194.204 153.537 195.634 151.507 196.949 149.403C198.885 146.069 201.715 143.343 205.119 141.532C209.533 139.057 213.747 136.242 217.724 133.112C224.714 127.532 232.984 123.782 241.787 122.201C245.623 121.504 249.31 120.159 253.047 119.162L256.783 118.166C256.996 118.117 257.218 118.117 257.431 118.166C259.278 118.638 261.214 118.638 263.061 118.166C266.1 117.767 269.189 117.369 272.228 117.07C274.32 117.07 276.412 116.771 278.505 116.671C279.252 116.671 280 117.02 280.697 117.02C282.441 117.02 284.135 117.02 285.679 117.02C291.128 116.447 296.621 116.447 302.07 117.02C305.259 117.419 308.447 118.116 311.586 118.664H311.885C313.819 118.793 315.696 119.373 317.365 120.358C319.507 121.155 321.6 122.201 323.792 122.999C327.547 124.35 330.833 126.754 333.258 129.924C335.944 133.466 338.108 137.375 339.685 141.532C339.837 141.928 340.02 142.311 340.233 142.678C342.216 145.77 343.758 149.124 344.816 152.642C345.522 154.635 346.055 156.685 346.41 158.77C346.83 160.805 347.716 162.716 349.001 164.35C350.645 166.442 352.239 168.634 353.983 170.776C354.577 171.593 355.126 172.441 355.627 173.317C356.076 174.114 356.374 175.061 356.873 175.858C357.439 176.852 358.125 177.772 358.915 178.598C362.106 181.942 364.087 186.255 364.545 190.854C364.658 191.547 364.825 192.23 365.043 192.897C365.492 194.662 365.492 196.512 365.043 198.277C364.43 201.008 364.312 203.826 364.694 206.597C364.794 207.991 364.794 209.389 364.694 210.782C364.686 211.164 364.772 211.541 364.946 211.88C365.12 212.219 365.376 212.51 365.691 212.725C367.584 214.071 369.527 215.465 371.37 216.91C371.985 217.459 372.552 218.059 373.064 218.704C374.609 220.398 376.303 222.042 377.747 223.686C380.25 226.652 381.501 230.476 381.235 234.347C381.258 234.513 381.258 234.68 381.235 234.846C380.551 236.827 380.116 238.885 379.94 240.974C379.858 242.179 379.528 243.354 378.971 244.426C378.414 245.497 377.641 246.442 376.701 247.201C376.303 247.5 375.954 247.899 375.506 248.297L378.345 250.19C378.957 250.529 379.49 250.992 379.91 251.55C380.331 252.108 380.629 252.748 380.787 253.429C381.068 254.705 381.503 255.943 382.082 257.115C382.73 258.361 382.082 259.706 382.63 260.802C383.178 261.898 382.879 262.895 382.929 263.991C382.929 263.692 382.929 263.343 382.929 263.094C382.53 264.887 382.182 266.681 381.783 268.475L382.132 268.923C384.872 272.211 380.089 281.478 380.089 281.478C379.292 282.773 378.445 284.118 377.747 285.463C377.006 286.844 376.405 288.297 375.954 289.798C375.456 291.342 376.452 292.488 377.349 293.534C378.31 294.785 379.581 295.764 381.036 296.374C381.534 296.374 381.783 297.271 382.182 297.719L383.875 299.812C384.351 300.365 384.769 300.966 385.121 301.605C386.068 303.449 386.267 305.641 388.011 307.185C388.608 307.683 388.658 308.929 388.658 309.875C388.547 310.676 388.347 311.461 388.06 312.217C387.413 314.26 386.865 316.302 386.167 318.345C385.818 319.491 385.32 320.637 384.872 321.733C384.423 322.829 383.975 323.327 383.676 324.174C383.485 324.999 383.032 325.74 382.386 326.288C381.74 326.835 380.934 327.16 380.089 327.213L378.296 327.512C377.762 327.532 377.242 327.683 376.781 327.953C376.321 328.222 375.934 328.601 375.655 329.056C374.765 330.466 373.473 331.576 371.945 332.242C370.417 332.908 368.724 333.1 367.086 332.793C363.488 332.358 359.947 331.54 356.524 330.352C355.169 330.135 353.934 329.447 353.037 328.409C352.789 328.201 352.5 328.048 352.19 327.96C349.559 326.622 347.114 324.947 344.916 322.978C344.134 322.444 343.253 322.072 342.325 321.882C341.877 321.882 341.329 321.882 340.88 321.583C338.396 320.926 335.824 320.657 333.258 320.786C330.524 321.041 327.942 322.157 325.884 323.975C321.925 327.574 318.65 331.862 316.219 336.629C314.426 339.818 312.981 343.156 311.237 346.593C310.561 348.266 310.321 350.083 310.54 351.874C310.422 355.524 309.905 359.149 308.995 362.685C308.397 365.375 307.899 368.116 307.351 370.856C307.245 371.246 307.282 371.662 307.455 372.027C307.629 372.393 307.928 372.684 308.298 372.849C311.835 375.091 315.372 377.432 318.959 379.574C320.653 380.621 322.546 381.218 324.29 382.115C329.297 384.871 333.823 388.421 337.692 392.627C342.488 397.79 347.815 402.432 353.585 406.477C354.88 407.374 356.424 407.872 357.769 408.719C359.115 409.566 361.307 411.31 363.1 412.456C390.255 398.691 413.071 377.68 429.021 351.749C444.972 325.819 453.436 295.979 453.475 265.535Z" fill="#00878F"/>
</g>
<defs>
<filter id="filter0_d_385_600" x="0.157888" y="0" width="584.684" height="584.684" filterUnits="userSpaceOnUse" color-interpolation-filters="sRGB">
<feFlood flood-opacity="0" result="BackgroundImageFix"/>
<feColorMatrix in="SourceAlpha" type="matrix" values="0 0 0 0 0 0 0 0 0 0 0 0 0 0 0 0 0 0 127 0" result="hardAlpha"/>
<feOffset dy="27.8421"/>
<feGaussianBlur stdDeviation="13.9211"/>
<feComposite in2="hardAlpha" operator="out"/>
<feColorMatrix type="matrix" values="0 0 0 0 0 0 0 0 0 0.2 0 0 0 0 0.235294 0 0 0 0.15 0"/>
<feBlend mode="normal" in2="BackgroundImageFix" result="effect1_dropShadow_385_600"/>
<feBlend mode="normal" in="SourceGraphic" in2="effect1_dropShadow_385_600" result="shape"/>
</filter>
<filter id="filter1_ii_385_600" x="28" y="-51.8204" width="547.353" height="599.173" filterUnits="userSpaceOnUse" color-interpolation-filters="sRGB">
<feFlood flood-opacity="0" result="BackgroundImageFix"/>
<feBlend mode="normal" in="SourceGraphic" in2="BackgroundImageFix" result="shape"/>
<feColorMatrix in="SourceAlpha" type="matrix" values="0 0 0 0 0 0 0 0 0 0 0 0 0 0 0 0 0 0 127 0" result="hardAlpha"/>
<feOffset dy="-70.1735"/>
<feGaussianBlur stdDeviation="25.9102"/>
<feComposite in2="hardAlpha" operator="arithmetic" k2="-1" k3="1"/>
<feColorMatrix type="matrix" values="0 0 0 0 0 0 0 0 0 0.2 0 0 0 0 0.235294 0 0 0 0.25 0"/>
<feBlend mode="normal" in2="shape" result="effect1_innerShadow_385_600"/>
<feColorMatrix in="SourceAlpha" type="matrix" values="0 0 0 0 0 0 0 0 0 0 0 0 0 0 0 0 0 0 127 0" result="hardAlpha"/>
<feOffset dx="18.3531" dy="18.3531"/>
<feGaussianBlur stdDeviation="13.4949"/>
<feComposite in2="hardAlpha" operator="arithmetic" k2="-1" k3="1"/>
<feColorMatrix type="matrix" values="0 0 0 0 0.901667 0 0 0 0 0.994499 0 0 0 0 1 0 0 0 0.25 0"/>
<feBlend mode="normal" in2="effect1_innerShadow_385_600" result="effect2_innerShadow_385_600"/>
</filter>
</defs>
</svg>
